PathFileType	4	(X/Y/Z)	..\data\2014014\dynamic\2014014_C4_04.trc
DataRate	CameraRate	NumFrames	NumMarkers	Units	OrigDataRate	OrigDataStartFrame	OrigNumFrames
100.000000	100.000000	4	48	mm	100.000000	22	178
Frame#	Time	L_IAS			L_IPS			R_IPS			R_IAS			L_FTC			L_FLE			L_FME			L_FAX			L_TTC			L_FAL			L_TAM			L_FCC			L_FM1			L_FM2			L_FM5			R_FTC			R_FLE			R_FME			R_FAX			R_TTC			R_FAL			R_TAM			R_FCC			R_FM1			R_FM2			R_FM5			CV7			TV10			SXS			SJN			L_SAA			L_SAE			L_HLE			L_HME			L_UOA			L_RSP			L_UHE			L_HM2			L_HM5			R_SAA			R_SAE			R_HLE			R_HME			R_UOA			R_RSP			R_UHE			R_HM2			R_HM5			
		X1	Y1	Z1	X2	Y2	Z2	X3	Y3	Z3	X4	Y4	Z4	X5	Y5	Z5	X6	Y6	Z6	X7	Y7	Z7	X8	Y8	Z8	X9	Y9	Z9	X10	Y10	Z10	X11	Y11	Z11	X12	Y12	Z12	X13	Y13	Z13	X14	Y14	Z14	X15	Y15	Z15	X16	Y16	Z16	X17	Y17	Z17	X18	Y18	Z18	X19	Y19	Z19	X20	Y20	Z20	X21	Y21	Z21	X22	Y22	Z22	X23	Y23	Z23	X24	Y24	Z24	X25	Y25	Z25	X26	Y26	Z26	X27	Y27	Z27	X28	Y28	Z28	X29	Y29	Z29	X30	Y30	Z30	X31	Y31	Z31	X32	Y32	Z32	X33	Y33	Z33	X34	Y34	Z34	X35	Y35	Z35	X36	Y36	Z36	X37	Y37	Z37	X38	Y38	Z38	X39	Y39	Z39	X40	Y40	Z40	X41	Y41	Z41	X42	Y42	Z42	X43	Y43	Z43	X44	Y44	Z44	X45	Y45	Z45	X46	Y46	Z46	X47	Y47	Z47	X48	Y48	Z48	

23	0.22	206.5957489013672	1002.796569824219	-119.7296566040048	-6.701594829559328	1010.424011230469	-28.94627714519412	-8.877059936523439	997.7537841796877	68.94627714519412	190.310302734375	979.4429321289065	159.7296566040048	140.4017028808594	908.4295043945315	-168.8364664171059	199.5428771972657	497.9115600585939	-132.8068082918402	192.3385467529297	497.2518310546876	4.73616952572034	188.1065368652344	434.5004882812501	-127.5034208841393	254.2353820800782	434.1050109863282	-68.54266881243612	207.8523712158204	62.78714752197267	-119.3286701318263	224.6800994873047	99.10192871093753	-17.89666597850206	152.9712829589844	20.053861618042	-63.35014095580774	352.3022460937501	23.66644096374512	-34.67283560363096	369.7028503417969	38.95288848876954	-75.85478284948589	318.9191284179688	17.2484188079834	-136.6788472364645	117.2335739135742	869.725769042969	201.77977018891	102.4900054931641	464.8667602539064	168.1761551397474	148.18896484375	452.2371520996095	39.89448362637252	54.39158248901369	437.314178466797	167.9111784980278	105.3397979736328	386.0748901367189	108.8162272066081	-239.111557006836	216.5973205566407	159.7178475624646	-189.8302001953125	208.2781677246094	58.05492402872793	-283.5629272460938	231.6067352294922	103.5203760469626	-194.2833099365235	60.57124328613283	74.31989194537282	-182.6651611328125	66.40621948242189	116.2531535677032	-221.6254577636719	83.18003845214845	178.1868656505937	42.24816894531251	1530.221801757813	22.33197663849248	-52.23812484741212	1284.921875	22.33197663849248	220.0025177001954	1255.244384765625	22.33197663849248	168.7067108154297	1436.355346679688	22.23227489079067	9.909296035766603	1448.120849609375	-219.6455385149378	56.09932327270509	1442.771240234375	-176.1371861577316	37.47090911865235	1101.160522460938	-258.8717543254914	2.411731719970704	1095.311279296875	-174.535390332801	-2.291971921920777	1084.936889648438	-210.2361499973812	104.0784301757813	837.8499755859377	-239.5967179865834	34.64507675170899	845.9747314453127	-265.4190523397495	120.7870025634766	749.0186157226564	-244.7565623451693	18.74581909179688	763.1634521484376	-246.8581665756566	40.76771545410157	1442.984375	259.6455385149378	91.35057830810548	1438.468383789063	216.1373355492392	106.8919525146485	1104.905517578125	304.6079114146845	82.80509185791017	1085.305786132813	207.9388096802291	66.48223876953126	1078.804809570313	248.860189315611	236.1801757812501	867.4957275390627	279.4189228109762	168.3052825927735	863.8943481445315	306.295032088454	285.3666992187501	788.849060058594	285.0291244398524	180.0628204345703	765.0479125976564	287.1250341336798	
24	0.23	217.0502319335938	1003.410400390625	-119.7296566040048	3.85434913635254	1011.50634765625	-28.94627714519412	1.367542505264282	998.5295410156252	68.94627714519412	200.5065155029297	980.5064697265627	159.7296566040048	149.4906921386719	908.8715820312502	-168.8364664171059	202.8806762695313	497.8851928710939	-132.8068082918402	196.5672760009766	497.3179626464845	4.73616952572034	190.5690460205078	434.6089172363282	-127.5034208841393	257.3241577148438	433.5205383300782	-68.54266881243612	207.5166778564454	62.78332901000978	-119.3286701318263	224.8854980468751	99.15998077392581	-17.89666597850206	152.8295440673828	19.97904586791993	-63.35014095580774	352.1090393066407	23.75129699707032	-34.67283560363096	369.7237243652344	38.91613388061524	-75.85478284948589	318.9112243652344	17.33488464355469	-136.6788472364645	128.5898895263672	870.4221801757815	201.77977018891	126.1473541259766	465.4307556152345	168.1761551397474	171.2184448242188	453.5923767089845	39.89448362637252	78.60396575927736	438.4979248046876	167.9111784980278	128.539794921875	387.0750122070314	108.8162272066081	-219.227035522461	224.7024841308594	159.7178475624646	-170.6256256103516	215.6757202148438	58.05492402872793	-264.1502685546876	240.3109436035157	103.5203760469626	-176.9244537353516	66.84787750244142	74.31989194537282	-165.265869140625	72.78099822998048	116.2531535677032	-203.5250091552735	91.85438537597658	178.1868656505937	52.89321136474611	1531.363037109375	22.33197663849248	-41.68443298339844	1286.048461914063	22.33197663849248	230.598617553711	1256.275268554688	22.33197663849248	179.3433380126953	1437.416748046875	22.23227489079067	21.22864151000977	1448.945434570313	-219.6455385149378	67.5891799926758	1443.520263671875	-176.1371861577316	51.92419052124025	1101.613037109375	-258.8717543254914	16.18277931213379	1095.234252929688	-174.535390332801	12.189847946167	1084.685180664063	-210.2361499973812	123.114242553711	839.4060668945315	-239.5967179865834	53.96383285522462	846.1561279296877	-265.4190523397495	142.0525970458985	751.3497924804689	-244.7565623451693	39.82663345336915	763.0354003906251	-246.8581665756566	50.97356414794923	1444.2900390625	259.6455385149378	101.4975280761719	1439.714477539063	216.1373355492392	115.8550643920899	1105.846923828125	304.6079114146845	91.75827026367189	1086.6533203125	207.9388096802291	75.41741180419923	1080.183959960938	248.860189315611	242.0942535400391	866.7207031250002	279.4189228109762	174.4756774902344	864.0747680664065	306.295032088454	289.7347412109376	786.575378417969	285.0291244398524	184.386962890625	765.0693359375001	287.1250341336798	
25	0.24	227.3796997070313	1003.908020019531	-119.7296566040048	14.27060604095459	1012.565063476563	-28.94627714519412	11.55055141448975	999.377136230469	68.94627714519412	210.6473236083985	981.7100830078127	159.7296566040048	158.4759216308594	909.1928710937502	-168.8364664171059	205.8486785888672	497.8366699218751	-132.8068082918402	200.5361022949219	497.3484802246095	4.73616952572034	192.6607971191407	434.7034606933595	-127.5034208841393	260.0902404785157	432.939422607422	-68.54266881243612	207.1226196289063	62.74035263061525	-119.3286701318263	225.0445709228516	99.19849395751956	-17.89666597850206	152.6129913330078	19.91090965270996	-63.35014095580774	351.9075317382813	23.88560867309571	-34.67283560363096	369.6208190917969	38.82797241210938	-75.85478284948589	318.8596801757813	17.28048896789551	-136.6788472364645	139.8314666748047	871.3902587890627	201.77977018891	149.5296783447266	466.5541992187501	168.1761551397474	193.8872680664063	455.6031799316407	39.89448362637252	102.4903335571289	440.1021423339845	167.9111784980278	151.6750183105469	388.6303100585939	108.8162272066081	-198.5801544189454	231.7962493896485	159.7178475624646	-150.5389709472657	222.3581848144532	58.05492402872793	-244.0287780761719	247.5420684814454	103.5203760469626	-157.1856384277344	72.72476196289064	74.31989194537282	-145.5990600585938	79.04768371582033	116.2531535677032	-183.4646606445313	99.72502136230472	178.1868656505937	63.4723472595215	1532.488403320313	22.33197663849248	-31.23930931091309	1287.173706054688	22.33197663849248	241.0564117431641	1257.245483398438	22.33197663849248	189.8794860839844	1438.4267578125	22.23227489079067	32.50470352172852	1449.8203125	-219.6455385149378	79.05580902099611	1444.291870117188	-176.1371861577316	66.41267395019533	1102.130737304688	-258.8717543254914	29.96944427490235	1095.163330078125	-174.535390332801	26.7129020690918	1084.459594726563	-210.2361499973812	142.2586212158203	841.1295166015627	-239.5967179865834	73.43595123291017	846.4605102539065	-265.4190523397495	163.5449676513672	753.9677734375001	-244.7565623451693	61.17763519287111	763.0512695312501	-246.8581665756566	60.95584869384767	1445.499755859375	259.6455385149378	111.4051895141602	1440.848388671875	216.1373355492392	124.649528503418	1106.702270507813	304.6079114146845	100.6163177490235	1087.819580078125	207.9388096802291	84.22713470458986	1081.425048828125	248.860189315611	247.9742126464844	865.9562988281252	279.4189228109762	180.730224609375	864.2317504882815	306.295032088454	294.0576477050782	784.3090820312502	285.0291244398524	188.843734741211	765.1105957031251	287.1250341336798	
26	0.25	237.5918579101563	1004.336791992188	-119.7296566040048	24.56938362121583	1013.606018066406	-28.94627714519412	21.70867156982422	1000.30859375	68.94627714519412	220.7862701416016	983.069274902344	159.7296566040048	167.387435913086	909.414245605469	-168.8364664171059	208.5633544921876	497.7970581054689	-132.8068082918402	204.3209228515626	497.3750000000001	4.73616952572034	194.511703491211	434.8155822753907	-127.5034208841393	262.6254577636719	432.3885498046876	-68.54266881243612	206.6986083984376	62.67710113525392	-119.3286701318263	225.1690673828126	99.22270965576175	-17.89666597850206	152.3497009277344	19.85374832153321	-63.35014095580774	351.7043457031251	24.05147361755372	-34.67283560363096	369.4227905273438	38.69504547119141	-75.85478284948589	318.7757263183594	17.11718177795411	-136.6788472364645	151.0402221679688	872.6452636718752	201.77977018891	172.5698547363282	468.2153930664064	168.1761551397474	216.1829223632813	458.2102661132814	39.89448362637252	125.9540252685547	442.1032714843751	167.9111784980278	174.6876373291016	390.715057373047	108.8162272066081	-177.2408447265625	237.7149505615235	159.7178475624646	-129.6240539550782	228.1486053466797	58.05492402872793	-223.2598419189454	253.1735076904297	103.5203760469626	-135.2335815429688	78.00300598144533	74.31989194537282	-123.8112945556641	84.97312927246095	116.2531535677032	-161.5908813476563	106.5469360351563	178.1868656505937	73.98526763916017	1533.599609375	22.33197663849248	-20.89053726196289	1288.294189453125	22.33197663849248	251.3861083984376	1258.181396484375	22.33197663849248	200.3185119628907	1439.40380859375	22.23227489079067	43.72163009643555	1450.76123046875	-219.6455385149378	90.47997283935548	1445.115600585938	-176.1371861577316	80.94831848144533	1102.751342773438	-258.8717543254914	43.7949562072754	1095.143188476563	-174.535390332801	41.2877426147461	1084.306030273438	-210.2361499973812	161.4735565185547	843.0535888671877	-239.5967179865834	93.02842712402345	846.944763183594	-265.4190523397495	185.1880798339844	756.8912353515626	-244.7565623451693	82.74348449707033	763.2786865234376	-246.8581665756566	70.73213958740236	1446.631469726563	259.6455385149378	121.0894546508789	1441.8955078125	216.1373355492392	133.2545471191407	1107.503784179688	304.6079114146845	109.3748550415039	1088.848876953125	207.9388096802291	92.88945770263673	1082.565063476563	248.860189315611	253.8261108398438	865.2385864257815	279.4189228109762	187.0525207519532	864.3938598632815	306.295032088454	298.3636779785157	782.1068115234377	285.0291244398524	193.4438171386719	765.1976928710939	287.1250341336798	
